<svg width="260" height="260" viewBox="0 0 260 260" fill="none" xmlns="http://www.w3.org/2000/svg">
<rect width="260" height="260" rx="68" fill="black"/>
<path d="M54.098 49.2291H102.339V52.2829C90.6687 52.5591 87.887 56.2846 85.9636 65.8068V124.701H173.594V65.8068C177.098 35.2085 184.784 25.45 207.672 20L209 23.0538C196.449 28.2485 191.405 36.158 188.641 65.8068V189.703C189.058 199.697 193.607 201.875 205.459 202.791V206.281H156.333V202.791C169.036 201.416 172.903 198.606 173.594 189.703V139.97H85.9636V202.791C79.4604 227.411 71.7423 234.785 52.3277 239L51 236.382C64.4574 227.622 68.7168 220.265 70.4734 202.791V65.8068C70.4547 56.1545 66.9255 53.1339 54.098 52.2829V49.2291Z" fill="#F8F1ED"/>
</svg>
