<svg width="640" height="640" viewBox="0 0 640 640" fill="none" xmlns="http://www.w3.org/2000/svg">
<path fill-rule="evenodd" clip-rule="evenodd" d="M480 96C515.3 96 544 124.7 544 160V480C544 515.3 515.3 544 480 544H160C124.7 544 96 515.3 96 480V160C96 124.7 124.7 96 160 96H480ZM342.879 463.894C403.577 463.894 454.4 394.667 446.933 346.105C412.248 401.073 385.443 432.483 325.536 432.483C266.496 432.483 244.435 394.349 230.75 370.696L230.153 369.663C216.511 346.105 212.81 259.727 264.838 228.317C316.865 196.907 362.056 196.907 372.742 233.814L383.428 270.722H404.801C399.33 236.688 407.758 215.572 419.937 185.06C421.93 180.066 424.023 174.821 426.173 169.227L394.114 160L383.428 196.907C368.892 134.087 264.838 165.497 221.481 204.76C178.125 244.022 158.83 354.156 204.139 408.926C249.448 463.696 282.18 463.894 342.879 463.894Z" fill="#2B6D5E"/>
</svg>
